<svg width="175" height="243" viewBox="0 0 175 243" fill="none" xmlns="http://www.w3.org/2000/svg">
<g filter="url(#filter0_d_16_32)">
<path fill-rule="evenodd" clip-rule="evenodd" d="M125.472 110.345C121.275 108.766 118.09 109.486 114.182 113.074C112.158 114.938 110.423 117.662 110.419 118.956C110.419 122.401 118.374 138.626 121.125 140.926C123.73 143.079 124.31 146.808 121.994 146.808C121.125 146.807 118.813 145.807 116.933 144.516C112.012 141.358 112.304 144.087 117.66 151.84C122.432 158.729 123.444 166.767 119.827 169.781C116.643 172.365 117.219 174.081 120.982 174.081C122.719 174.081 125.759 175.092 127.496 176.384C130.245 178.25 130.676 179.829 130.676 187.145C130.676 194.753 130.975 195.625 133.725 195.625C136.326 195.624 136.765 194.899 136.476 189.448C136.186 186.146 136.176 182.551 136.321 181.546C136.614 178.968 140.085 179.404 142.978 182.703C145.438 185.287 145.442 187.586 144.574 210.555C143.561 234.093 143.708 235.672 146.312 237.108C152.826 240.553 153.84 235.812 151.814 208.535C150.512 189.019 151.667 185.719 158.9 188.444C164.834 190.597 170.337 186.574 170.916 179.396C171.35 174.947 170.337 173.222 162.377 164.466C148.918 149.825 141.675 139.636 134.439 124.708C130.822 117.246 126.776 110.781 125.472 110.345ZM26.7596 7.41886C12.8689 1.10424 10.6908 0.809619 6.0621 4.39508C0.41741 9.13238 1.72072 14.3033 13.5885 32.2469C19.5228 41.1475 27.0509 53.7903 30.3799 60.394C33.708 66.9954 37.181 73.3135 38.0492 74.4616C40.6555 77.3287 45.7213 76.8915 50.351 73.3041C53.8221 70.7216 54.2541 69.5731 53.5306 64.6934C53.096 61.6799 51.0779 56.9441 49.0529 54.2165C43.1187 46.4646 44.4135 44.3133 52.5184 48.4761C57.5843 51.0601 80.0249 52.0568 90.5909 50.047C99.271 48.4692 99.4113 50.051 91.1625 58.2325C85.5178 63.8313 78.4271 72.3069 68.4405 85.8008C65.113 90.2487 64.0953 90.6772 57.2938 90.8208C48.9041 90.8215 44.8555 93.5486 45.5755 98.5692C46.0098 101.727 46.7351 101.879 60.4854 100.731C67.14 100.157 67.7205 100.447 68.1547 103.317C68.5874 106.327 68.0043 106.613 61.6405 106.613C54.5484 106.613 54.5468 106.614 32.5473 132.74C20.5339 147.24 10.3987 159.589 10.254 160.45C9.96919 161.168 11.5628 162.03 13.7314 162.317C18.5061 162.891 25.0167 170.063 25.0209 174.943C25.0209 177.095 25.8874 178.39 27.1883 178.392C31.6753 178.392 32.5455 185.284 30.8086 204.378C28.7823 226.055 29.5123 230.359 35.0124 229.785C38.7702 229.354 38.7756 229.344 38.7756 203.232C38.7756 180.695 39.0583 176.813 41.2288 174.66C42.5312 173.224 44.5569 172.657 46.0043 173.23C48.0306 173.948 48.3182 175.81 48.0288 183.849C47.4499 192.749 47.7458 193.464 50.351 193.464C52.9549 193.463 53.243 192.461 53.3877 183.707C53.3877 175.668 53.974 173.37 56.5793 170.785C59.6171 167.773 61.0696 167.63 81.1829 167.773C93.9183 167.774 104.053 168.493 106.513 169.498C109.838 170.931 110.854 170.78 113.313 168.34C117.507 164.179 116.923 161.454 109.109 148.107C93.6219 122.267 94.3496 122.835 88.1257 125.275C82.7708 127.285 81.1738 131.168 83.779 135.906C84.9359 138.201 85.8147 140.492 85.8154 141.067C85.8154 141.785 79.7265 142.503 72.4895 142.934C65.1129 143.221 57.5938 144.084 55.8529 144.658C52.0907 145.806 51.3636 143.797 54.4 140.784C56.1369 139.061 73.7957 118.811 79.73 111.633C81.1774 110.053 83.3565 107.042 84.8032 104.747C87.1175 101.304 88.1316 100.872 95.3663 100.872C106.652 100.872 111.719 97.4264 109.407 91.3995C108.683 89.5334 106.799 89.3926 97.2479 90.2538C86.3924 91.1151 85.8154 91.1052 85.8154 88.234C85.8166 85.654 86.8292 85.2272 92.6154 84.7968C98.9816 84.3662 99.9965 83.7887 106.072 76.3279C109.691 72.0215 120.548 58.9561 130.39 47.4721C140.088 35.9874 148.051 26.0749 148.051 25.6442C148.045 25.2148 146.745 24.7827 145.014 24.7819C140.384 24.7819 133.574 17.1816 133.57 12.0136C133.57 7.70683 131.552 4.97837 130.104 7.41886C128.647 9.71751 101.437 17.4609 89.2809 19.1832C69.1643 22.0534 51.0729 18.6146 26.7596 7.41886ZM16.0417 170.207C11.1225 165.903 6.92971 164.903 4.18051 167.773C-2.04257 173.947 6.20782 186.141 14.4578 183.27C19.954 181.402 20.8168 174.512 16.0417 170.207ZM154.267 6.41487C150.36 1.8216 144.863 1.09471 140.81 4.39508C137.337 7.26606 137.338 7.27172 139.798 12.4388C141.969 17.0327 146.747 20.4825 150.945 20.4825C153.405 20.4814 156.732 15.882 156.732 12.5805C156.731 10.8576 155.569 7.99321 154.267 6.41487Z" fill="url(#paint0_linear_16_32)"/>
</g>
<defs>
<filter id="filter0_d_16_32" x="0" y="0.0888672" width="175" height="242" filterUnits="userSpaceOnUse" color-interpolation-filters="sRGB">
<feFlood flood-opacity="0" result="BackgroundImageFix"/>
<feColorMatrix in="SourceAlpha" type="matrix" values="0 0 0 0 0 0 0 0 0 0 0 0 0 0 0 0 0 0 127 0" result="hardAlpha"/>
<feOffset dx="1" dy="1"/>
<feGaussianBlur stdDeviation="1.5"/>
<feComposite in2="hardAlpha" operator="out"/>
<feColorMatrix type="matrix" values="0 0 0 0 0 0 0 0 0 0 0 0 0 0 0 0 0 0 0.1 0"/>
<feBlend mode="normal" in2="BackgroundImageFix" result="effect1_dropShadow_16_32"/>
<feBlend mode="normal" in="SourceGraphic" in2="effect1_dropShadow_16_32" result="shape"/>
</filter>
<linearGradient id="paint0_linear_16_32" x1="86.5" y1="2.08887" x2="86.5" y2="238.089" gradientUnits="userSpaceOnUse">
<stop offset="0.605769" stop-color="#FF6105"/>
<stop offset="1" stop-color="#CA0013"/>
</linearGradient>
</defs>
</svg>
